<svg xmlns="http://www.w3.org/2000/svg" width="231" height="35" viewBox="0 0 231 35">
    <g fill="#624FE0" fill-rule="evenodd">
        <path d="M3 0h18.568L26 4.705v29.992l-4.432-4.705H3a3 3 0 0 1-3-3V3a3 3 0 0 1 3-3zm3 5a2 2 0 1 0 0 4h13a2 2 0 1 0 0-4H6zm0 8a2 2 0 1 0 0 4h13a2 2 0 1 0 0-4H6zm0 8a2 2 0 1 0 0 4h5a2 2 0 1 0 0-4H6z"/>
        <path fill-rule="nonzero" d="M41.328 22.385c1.93 2.027 4.423 3.04 7.478 3.04 1.368 0 2.485-.266 3.35-.8.867-.533 1.3-1.28 1.3-2.24 0-.853-.258-1.448-.775-1.783-.532-.35-1.238-.54-2.12-.571l-4.195-.366c-1.99-.183-3.609-.853-4.855-2.012-1.277-1.127-1.93-2.704-1.96-4.731.03-2.438.888-4.267 2.575-5.486 1.642-1.22 3.724-1.829 6.247-1.829 1.094 0 2.074.069 2.94.206.867.152 1.68.366 2.44.64a13.92 13.92 0 0 1 3.92 2.4l-2.94 3.452a14.653 14.653 0 0 0-2.895-1.623c-1.003-.381-2.158-.572-3.465-.572-1.49 0-2.53.267-3.124.8-.623.534-.934 1.22-.934 2.058-.03.533.205.998.706 1.394.456.442 1.262.724 2.417.846l3.921.297c2.462.183 4.24.93 5.335 2.24 1.018 1.28 1.527 2.903 1.527 4.869-.03 2.3-.965 4.076-2.804 5.326-1.824 1.28-4.157 1.935-6.999 1.965-3.86 0-7.333-1.417-10.418-4.251l3.328-3.269zm18.764-16.48h4.765v2.514h.091c1.566-1.875 3.625-2.812 6.178-2.812 1.642.03 2.964.313 3.967.846a11.854 11.854 0 0 1 2.713 2.263c1.854-2.103 4.339-3.14 7.454-3.109 1.96 0 3.754.694 5.38 2.08 1.611 1.402 2.447 3.46 2.508 6.172v15.772h-4.765V15.505c0-1.661-.433-2.926-1.299-3.795-.866-.883-1.983-1.325-3.351-1.325-1.368 0-2.493.442-3.374 1.325-.897.869-1.345 2.134-1.345 3.795V29.63h-4.765V15.505c0-1.661-.433-2.926-1.3-3.795-.88-.883-2.005-1.325-3.373-1.325-1.368 0-2.485.442-3.351 1.325-.912.869-1.368 2.134-1.368 3.795V29.63h-4.765V5.904zm48.72 21.623h-.092c-.44.808-1.124 1.402-2.051 1.783-.912.396-2.174.594-3.785.594-2.644-.03-4.68-.731-6.11-2.103-1.504-1.34-2.256-3.055-2.256-5.143 0-1.996.653-3.65 1.96-4.96 1.308-1.34 3.222-2.027 5.745-2.057h6.589V13.15c.03-2.087-1.589-3.1-4.856-3.04-1.186 0-2.12.122-2.804.366a3.427 3.427 0 0 0-1.687 1.463l-3.739-2.857c1.809-2.378 4.476-3.536 8.002-3.475 2.979-.03 5.357.534 7.135 1.692 1.779 1.188 2.683 3.23 2.713 6.126V29.63h-4.764v-2.103zm0-7.954h-5.7c-2.766.06-4.133 1.013-4.103 2.857 0 .807.357 1.493 1.071 2.057.684.625 1.817.937 3.397.937 1.991.03 3.397-.206 4.218-.708.744-.503 1.117-1.646 1.117-3.43v-1.713zm7.707-13.67h4.765V8.42h.09c1.566-1.875 3.618-2.812 6.156-2.812 1.9.03 3.556.64 4.97 1.829l-3.096 2.124c-1.425-.44-2.783-.452-4.073-.039-1.096.55-1.973 1.154-2.63 1.813-.987.825-1.387 2.274-1.417 4.01v14.287h-4.765V5.904zm19.995 0h5.11V9.54h-5.11v13.829c-.03 1.204.532 1.79 1.687 1.76h1.778v4.503h-2.485c-1.671 0-3.04-.518-4.103-1.554-1.094-.99-1.641-2.423-1.641-4.298V9.54h-2.371V5.904h7.135zm4.721 0H146V8.42h.091c1.565-1.875 3.617-2.812 6.155-2.812 1.96 0 3.754.694 5.38 2.08 1.611 1.402 2.455 3.46 2.53 6.172v15.772h-4.764V15.505c0-1.661-.44-2.926-1.322-3.795-.866-.883-1.983-1.325-3.351-1.325-1.368 0-2.493.442-3.374 1.325-.897.869-1.345 2.134-1.345 3.795V29.63h-4.765V5.904zm20.702 11.84c0-2.498.205-4.418.616-5.76.425-1.31 1.079-2.415 1.96-3.314.654-.792 1.565-1.5 2.736-2.126 1.155-.594 2.637-.906 4.445-.937 1.87.03 3.382.343 4.537.937 1.14.625 2.021 1.334 2.644 2.126.942.9 1.611 2.004 2.006 3.315.38 1.34.57 3.26.57 5.76 0 2.499-.19 4.404-.57 5.714a8.143 8.143 0 0 1-2.006 3.406c-.304.35-.676.694-1.117 1.029-.395.38-.904.708-1.527.983-1.155.655-2.667.998-4.537 1.028-1.808-.03-3.29-.373-4.445-1.028-1.17-.595-2.082-1.265-2.736-2.012-.881-.96-1.535-2.095-1.96-3.406-.41-1.31-.616-3.215-.616-5.714zm14.75.047c0-1.692-.076-2.926-.228-3.703a4.374 4.374 0 0 0-.935-1.966c-.35-.534-.866-.953-1.55-1.257-.654-.32-1.414-.48-2.28-.48-.805 0-1.55.16-2.234.48a4.229 4.229 0 0 0-1.596 1.257 5.53 5.53 0 0 0-.889 1.966c-.182.777-.273 1.996-.273 3.657 0 1.646.09 2.85.273 3.611a5.99 5.99 0 0 0 .89 2.058c.41.457.942.86 1.595 1.211a5.006 5.006 0 0 0 2.234.503c.866 0 1.626-.168 2.28-.503.684-.35 1.2-.754 1.55-1.211.471-.595.783-1.28.935-2.058.152-.761.228-1.95.228-3.565zM188.27 5.904h3.465V9.54h-3.465v13.829c-.03 1.204.532 1.79 1.687 1.76h1.778v4.503h-2.485c-1.672 0-3.04-.518-4.104-1.554-1.094-.99-1.64-2.423-1.64-4.298V9.54h-2.372V5.904H188.27zm8.323 13.67c0 1.904.547 3.352 1.641 4.343 1.018 1.005 2.356 1.508 4.012 1.508 1.93 0 3.655-.77 5.175-2.308l3.443 2.948c-2.417 2.59-5.259 3.87-8.527 3.84-1.246 0-2.462-.183-3.647-.548a8.869 8.869 0 0 1-1.733-.8 8.39 8.39 0 0 1-1.664-1.075c-1.003-.883-1.816-2.118-2.44-3.703-.683-1.523-1.025-3.504-1.025-5.943 0-2.346.296-4.297.89-5.851.592-1.585 1.352-2.835 2.279-3.749.942-.93 1.998-1.6 3.169-2.012 1.155-.411 2.295-.617 3.42-.617 2.704.03 4.992.922 6.861 2.675 1.9 1.783 2.865 4.236 2.895 7.36v3.932h-14.75zm9.985-3.932c-.061-1.844-.555-3.238-1.482-4.183-.912-.9-2.082-1.349-3.51-1.349-1.43 0-2.6.45-3.512 1.349-.896.945-1.39 2.34-1.481 4.183h9.985zm7.251 6.743c1.93 2.027 4.423 3.04 7.478 3.04 1.368 0 2.485-.266 3.35-.8.867-.533 1.3-1.28 1.3-2.24 0-.853-.258-1.448-.775-1.783-.532-.35-1.238-.54-2.12-.571l-4.195-.366c-1.99-.183-3.61-.853-4.855-2.012-1.277-1.127-1.93-2.704-1.96-4.731.03-2.438.888-4.267 2.575-5.486 1.642-1.22 3.724-1.829 6.247-1.829 1.094 0 2.074.069 2.94.206.867.152 1.68.366 2.44.64a13.92 13.92 0 0 1 3.92 2.4l-2.94 3.452a14.653 14.653 0 0 0-2.895-1.623c-1.003-.381-2.158-.572-3.465-.572-1.49 0-2.53.267-3.124.8-.623.534-.934 1.22-.934 2.058-.03.533.205.998.706 1.394.456.442 1.262.724 2.417.846l3.92.297c2.463.183 4.241.93 5.335 2.24 1.019 1.28 1.528 2.903 1.528 4.869-.03 2.3-.965 4.076-2.804 5.326-1.824 1.28-4.157 1.935-6.999 1.965-3.86 0-7.333-1.417-10.418-4.251l3.328-3.269zM131.705 1.49L136.637 0v4.615h-4.932V1.49zm51.95 0L188.585 0v4.615h-4.932V1.49z"/>
    </g>
</svg>
